# xmcd CD database file
#
# Track frame offsets:
#	150
#	29718
#	50071
#	72665
#	98646
#	119648
#	142406
#	166856
#	199809
#	228393
#	249665
#
# Disc length: 3642 seconds
#
# Revision: 0
# Processed by: cddbd v1.5.2PL0 Copyright (c) Steve Scherf et al.
# Submitted via: CDex 1.70beta2
#
DISCID=ae0e380b
DTITLE=Annette Neuffer Quintett -  Premaster
DYEAR=2005
DGENRE=Jazz
TTITLE0=I Only Have Eyes For You
TTITLE1=What A Little Moonlight Can Do
TTITLE2=Baby, Baby, All The Time
TTITLE3=Someone To Watch Over Me
TTITLE4=There Will Never Be Another You
TTITLE5=Summer Samba
TTITLE6=Now Or Never
TTITLE7=Easy To Love
TTITLE8=Shiny Stockings
TTITLE9=This Is Always
TTITLE10=On A Misty Night
EXTD=YEAR: 2005
EXTT0=
EXTT1=
EXTT2=
EXTT3=
EXTT4=
EXTT5=
EXTT6=
EXTT7=
EXTT8=
EXTT9=
EXTT10=
PLAYORDER=
